<?xml version="1.0" encoding="utf-8"?>
<svg viewBox="75.022 374.146 1849.955 1318.301" width="1849.955" height="1318.301" xmlns="http://www.w3.org/2000/svg">
  <defs>
    <style type="text/css">
	.st0{fill:#718AE9;}
	.st1{display:none;}
	.st2{display:inline;fill:#FFFFFF;stroke:#000000;stroke-miterlimit:10;}
	.st3{display:inline;fill:#718AE9;}
	.st4{display:inline;}
</style>
  </defs>
  <g id="XMLID_42_" style="" transform="matrix(1.152235, 0, 0, 1.152235, -263.750977, -167.86554)">
    <path id="XMLID_44_" class="st0" d="M1322.3,1588.1L997.7,899.4c-5.8-12.3-5.9-26.5-0.2-38.8l167.3-363.4 c7.5-16.3,23.8-26.8,41.8-26.8h646.9c33.6,0,55.9,34.9,41.7,65.4l-489.5,1052.2C1389.2,1623.3,1339,1623.4,1322.3,1588.1z" style=""/>
    <path id="XMLID_43_" class="st0" d="M730.3,1389.2l231-490.1c5.7-12.2,5.8-26.2,0.2-38.4L841.2,599.4 c-7.4-16.2-23.6-26.5-41.4-26.5H339.6c-33.3,0-55.3,34.6-41.3,64.7L647.8,1389C664.1,1424,713.8,1424.2,730.3,1389.2z" style=""/>
  </g>
</svg>